<svg width="33" height="32" viewBox="0 0 33 32" fill="none" xmlns="http://www.w3.org/2000/svg">
<g id="Phosphor icons / Nut">
<path id="Vector (Stroke)" fill-rule="evenodd" clip-rule="evenodd" d="M15.9523 2.40637C16.2515 2.23472 16.5904 2.14438 16.9353 2.14438C17.2802 2.14438 17.6191 2.23472 17.9183 2.40637L28.4166 8.34293C28.7243 8.51768 28.9805 8.77047 29.1594 9.07582C29.3382 9.38116 29.4334 9.72827 29.4353 10.0821L29.4353 10.0875L29.4353 21.9125H28.4353L29.4353 21.9179C29.4334 22.2717 29.3382 22.6188 29.1594 22.9242C28.9805 23.2295 28.7243 23.4823 28.4166 23.6571L17.9183 29.5936C17.6192 29.7653 17.2803 29.8556 16.9353 29.8556C16.5903 29.8556 16.2514 29.7653 15.9523 29.5936L5.45557 23.658L5.45399 23.6571C5.14628 23.4823 4.89008 23.2295 4.71124 22.9242C4.53239 22.6188 4.43722 22.2717 4.43532 21.9179L4.4353 21.9125V10.0821C4.4372 9.72827 4.53239 9.38116 4.71124 9.07582C4.89008 8.77047 5.14628 8.51768 5.45399 8.34294L5.45557 8.34204L15.9523 2.40637ZM27.4353 21.9077V10.0923C27.4352 10.0903 27.4346 10.0884 27.4336 10.0866C27.433 10.0855 27.4321 10.0845 27.4312 10.0837C27.4306 10.0831 27.4299 10.0826 27.4291 10.0822C27.4291 10.0821 27.4292 10.0822 27.4291 10.0822L16.9353 4.14814L6.44162 10.0821C6.44157 10.0821 6.44166 10.082 6.44162 10.0821C6.43977 10.0832 6.43808 10.0848 6.437 10.0866C6.43598 10.0884 6.4354 10.0903 6.4353 10.0923V21.9077C6.4354 21.9097 6.43598 21.9116 6.437 21.9134C6.43808 21.9152 6.43961 21.9168 6.44144 21.9178C6.44139 21.9178 6.4415 21.9179 6.44144 21.9178L16.9353 27.8519L27.429 21.9179C27.4289 21.918 27.429 21.9179 27.429 21.9179C27.4308 21.9169 27.4325 21.9152 27.4336 21.9134C27.4346 21.9116 27.4352 21.9097 27.4353 21.9077Z" fill="white"/>
<path id="Vector (Stroke)_2" fill-rule="evenodd" clip-rule="evenodd" d="M16.9353 12.5C15.0023 12.5 13.4353 14.067 13.4353 16C13.4353 17.933 15.0023 19.5 16.9353 19.5C18.8683 19.5 20.4353 17.933 20.4353 16C20.4353 14.067 18.8683 12.5 16.9353 12.5ZM11.4353 16C11.4353 12.9624 13.8977 10.5 16.9353 10.5C19.9729 10.5 22.4353 12.9624 22.4353 16C22.4353 19.0376 19.9729 21.5 16.9353 21.5C13.8977 21.5 11.4353 19.0376 11.4353 16Z" fill="white"/>
</g>
</svg>
